<svg xmlns="http://www.w3.org/2000/svg" xmlns:xlink="http://www.w3.org/1999/xlink" width="500" zoomAndPan="magnify" viewBox="0 0 375 119.999999" height="160" preserveAspectRatio="xMidYMid meet" version="1.0"><defs><g/></defs><g fill="#2f5597" fill-opacity="1"><g transform="translate(8.985082, 98.977214)"><g><path d="M 56.328125 -43.203125 L 56.328125 -25.625 L 85.96875 -25.625 L 85.96875 -6.0625 L 3.296875 -6.0625 L 3.296875 -25.625 L 32.9375 -25.625 L 32.9375 -43.203125 L 7.046875 -43.203125 L 7.046875 -61.953125 L 82.21875 -61.953125 L 82.21875 -43.203125 Z M 56.328125 -43.203125 "/></g></g></g><g fill="#2f5597" fill-opacity="1"><g transform="translate(98.239536, 98.977214)"><g><path d="M 82.921875 -38.734375 C 83.703125 -31.710938 85.519531 -24.15625 88.375 -16.0625 C 84.320312 -12.96875 79.882812 -10.15625 75.0625 -7.625 C 70.25 -5.101562 64.210938 -2.382812 56.953125 0.53125 L 44.015625 -8.296875 C 44.128906 -13.054688 44.1875 -20.882812 44.1875 -31.78125 C 44.1875 -46.71875 44.035156 -58.378906 43.734375 -66.765625 L 65.515625 -67.3125 C 65.273438 -57.3125 65.15625 -49.273438 65.15625 -43.203125 C 65.15625 -39.515625 65.21875 -34.160156 65.34375 -27.140625 C 68.132812 -28.328125 70.941406 -29.8125 73.765625 -31.59375 C 76.597656 -33.382812 79.648438 -35.765625 82.921875 -38.734375 Z M 39.015625 -63.921875 C 39.191406 -60.941406 39.382812 -56.863281 39.59375 -51.6875 C 39.800781 -46.507812 39.90625 -42.132812 39.90625 -38.5625 C 39.90625 -36.65625 39.875 -35.347656 39.8125 -34.640625 C 39.332031 -25.117188 36.785156 -17.25 32.171875 -11.03125 C 27.566406 -4.8125 20.351562 -0.453125 10.53125 2.046875 C 8.75 -1.816406 6.710938 -5.609375 4.421875 -9.328125 C 2.128906 -13.046875 -0.328125 -16.210938 -2.953125 -18.828125 C 4.492188 -19.367188 9.75 -21.050781 12.8125 -23.875 C 15.875 -26.707031 17.40625 -30.59375 17.40625 -35.53125 C 17.40625 -42.96875 17.210938 -48.691406 16.828125 -52.703125 C 16.441406 -56.722656 15.800781 -60.28125 14.90625 -63.375 Z M 39.015625 -63.921875 "/></g></g></g><g fill="#2f5597" fill-opacity="1"><g transform="translate(187.493991, 98.977214)"><g><path d="M 86.046875 -60.25 L 86.046875 -41.0625 L 77.921875 -41.0625 C 77.628906 -31.476562 75.117188 -23.769531 70.390625 -17.9375 C 65.660156 -12.101562 59.515625 -7.773438 51.953125 -4.953125 C 44.390625 -2.128906 35.40625 -0.0625 25 1.25 C 22.851562 -3.03125 20.632812 -6.878906 18.34375 -10.296875 C 16.050781 -13.722656 13.269531 -16.957031 10 -20 C 20.289062 -20.175781 28.578125 -20.976562 34.859375 -22.40625 C 41.140625 -23.832031 45.867188 -26.046875 49.046875 -29.046875 C 52.234375 -32.054688 54.09375 -36.0625 54.625 -41.0625 L 35.609375 -41.0625 L 35.609375 -26.25 L 12.40625 -26.25 L 12.40625 -41.0625 L 3.21875 -41.0625 L 3.21875 -60.25 L 12.40625 -60.25 L 12.40625 -68.015625 L 35.609375 -68.015625 L 35.609375 -60.25 L 52.9375 -60.25 C 52.632812 -61.800781 52.039062 -64.390625 51.15625 -68.015625 L 74.265625 -68.015625 L 75.875 -60.25 Z M 86.046875 -60.25 "/></g></g></g><g fill="#2f5597" fill-opacity="1"><g transform="translate(276.748457, 98.977214)"><g><path d="M 55.609375 -38.828125 L 74.984375 -41.59375 C 76.585938 -36.238281 78.625 -31.535156 81.09375 -27.484375 C 83.5625 -23.441406 86.703125 -19.367188 90.515625 -15.265625 C 82.953125 -10.617188 76.851562 -6.1875 72.21875 -1.96875 C 68.050781 -8.15625 64.734375 -13.820312 62.265625 -18.96875 C 59.796875 -24.113281 57.578125 -30.613281 55.609375 -38.46875 L 55.609375 -14.109375 C 55.609375 -10.117188 54.878906 -7.125 53.421875 -5.125 C 51.960938 -3.132812 49.460938 -1.765625 45.921875 -1.015625 C 42.378906 -0.273438 37.070312 0.0625 30 0 C 30 -2.019531 29.65625 -4.785156 28.96875 -8.296875 C 28.28125 -11.804688 27.429688 -14.875 26.421875 -17.5 C 24.335938 -13.207031 21.242188 -8.03125 17.140625 -1.96875 C 12.492188 -6.1875 6.394531 -10.617188 -1.15625 -15.265625 C 2.644531 -19.367188 5.78125 -23.441406 8.25 -27.484375 C 10.726562 -31.535156 12.769531 -36.238281 14.375 -41.59375 L 33.75 -38.828125 L 33.75 -43.296875 L 4.375 -43.296875 L 4.375 -62.484375 L 33.75 -62.484375 L 33.75 -67.65625 L 55.609375 -67.65625 L 55.609375 -62.484375 L 70.078125 -62.484375 C 68.460938 -64.566406 67.65625 -66.945312 67.65625 -69.625 C 67.65625 -71.707031 68.175781 -73.65625 69.21875 -75.46875 C 70.257812 -77.289062 71.6875 -78.722656 73.5 -79.765625 C 75.320312 -80.804688 77.273438 -81.328125 79.359375 -81.328125 C 81.441406 -81.328125 83.390625 -80.804688 85.203125 -79.765625 C 87.015625 -78.722656 88.441406 -77.289062 89.484375 -75.46875 C 90.523438 -73.65625 91.046875 -71.707031 91.046875 -69.625 C 91.046875 -67.125 90.347656 -64.863281 88.953125 -62.84375 C 87.554688 -60.820312 85.726562 -59.394531 83.46875 -58.5625 L 83.46875 -43.296875 L 55.609375 -43.296875 Z M 79.359375 -76.046875 C 77.566406 -76.046875 76.046875 -75.40625 74.796875 -74.125 C 73.554688 -72.851562 72.9375 -71.351562 72.9375 -69.625 C 72.9375 -67.84375 73.554688 -66.3125 74.796875 -65.03125 C 76.046875 -63.75 77.566406 -63.109375 79.359375 -63.109375 C 81.140625 -63.109375 82.65625 -63.75 83.90625 -65.03125 C 85.15625 -66.3125 85.78125 -67.84375 85.78125 -69.625 C 85.78125 -71.351562 85.15625 -72.851562 83.90625 -74.125 C 82.65625 -75.40625 81.140625 -76.046875 79.359375 -76.046875 Z M 27.3125 -19.375 C 28.269531 -19.3125 29.398438 -19.28125 30.703125 -19.28125 C 32.078125 -19.28125 32.925781 -19.503906 33.25 -19.953125 C 33.582031 -20.398438 33.75 -21.457031 33.75 -23.125 L 33.75 -38.46875 C 31.84375 -30.914062 29.695312 -24.550781 27.3125 -19.375 Z M 27.3125 -19.375 "/></g></g></g></svg>